<mxfile host="65bd71144e">
    <diagram id="mD9HNTA9dtqDI80EEtq5" name="Page-1">
        <mxGraphModel dx="1941" dy="411" grid="1" gridSize="10" guides="1" tooltips="1" connect="1" arrows="1" fold="1" page="1" pageScale="1" pageWidth="827" pageHeight="1169" math="0" shadow="0">
            <root>
                <mxCell id="0"/>
                <mxCell id="1" parent="0"/>
                <UserObject label="Converter" treeRoot="1" id="2">
                    <mxCell style="whiteSpace=wrap;html=1;align=center;treeFolding=1;treeMoving=1;newEdgeStyle={&quot;edgeStyle&quot;:&quot;elbowEdgeStyle&quot;,&quot;startArrow&quot;:&quot;none&quot;,&quot;endArrow&quot;:&quot;none&quot;};" parent="1" vertex="1">
                        <mxGeometry x="354" y="240" width="120" height="60" as="geometry"/>
                    </mxCell>
                </UserObject>
                <mxCell id="3" value="Result" style="whiteSpace=wrap;html=1;align=center;verticalAlign=middle;treeFolding=1;treeMoving=1;newEdgeStyle={&quot;edgeStyle&quot;:&quot;elbowEdgeStyle&quot;,&quot;startArrow&quot;:&quot;none&quot;,&quot;endArrow&quot;:&quot;none&quot;};" parent="1" vertex="1">
                    <mxGeometry x="660" y="360" width="120" height="60" as="geometry"/>
                </mxCell>
                <mxCell id="5" value="Currencies" style="whiteSpace=wrap;html=1;align=center;verticalAlign=middle;treeFolding=1;treeMoving=1;newEdgeStyle={&quot;edgeStyle&quot;:&quot;elbowEdgeStyle&quot;,&quot;startArrow&quot;:&quot;none&quot;,&quot;endArrow&quot;:&quot;none&quot;};" parent="1" vertex="1">
                    <mxGeometry x="354" y="440" width="120" height="60" as="geometry"/>
                </mxCell>
                <mxCell id="7" value="Header" style="whiteSpace=wrap;html=1;align=center;verticalAlign=middle;treeFolding=1;treeMoving=1;newEdgeStyle={&quot;edgeStyle&quot;:&quot;elbowEdgeStyle&quot;,&quot;startArrow&quot;:&quot;none&quot;,&quot;endArrow&quot;:&quot;none&quot;};" parent="1" vertex="1">
                    <mxGeometry x="61" y="360" width="120" height="60" as="geometry"/>
                </mxCell>
                <mxCell id="9" value="baseAmount" style="text;html=1;align=center;verticalAlign=middle;resizable=0;points=[];autosize=1;strokeColor=none;fontColor=#4D9900;" parent="1" vertex="1">
                    <mxGeometry x="11" y="285" width="80" height="20" as="geometry"/>
                </mxCell>
                <mxCell id="10" value="" style="endArrow=classic;html=1;exitX=0;exitY=0.25;exitDx=0;exitDy=0;entryX=0.25;entryY=0;entryDx=0;entryDy=0;strokeColor=#4D9900;fontColor=#98BF21;" parent="1" source="2" target="7" edge="1">
                    <mxGeometry width="50" height="50" relative="1" as="geometry">
                        <mxPoint x="390" y="610" as="sourcePoint"/>
                        <mxPoint x="440" y="560" as="targetPoint"/>
                        <Array as="points">
                            <mxPoint x="90" y="255"/>
                        </Array>
                    </mxGeometry>
                </mxCell>
                <mxCell id="11" value="" style="endArrow=none;html=1;fontColor=#007FFF;strokeColor=#007FFF;exitX=0.5;exitY=0;exitDx=0;exitDy=0;entryX=0;entryY=0.5;entryDx=0;entryDy=0;startArrow=classic;startFill=1;endFill=0;" parent="1" source="7" target="2" edge="1">
                    <mxGeometry width="50" height="50" relative="1" as="geometry">
                        <mxPoint x="390" y="620" as="sourcePoint"/>
                        <mxPoint x="350" y="270" as="targetPoint"/>
                        <Array as="points">
                            <mxPoint x="120" y="270"/>
                        </Array>
                    </mxGeometry>
                </mxCell>
                <mxCell id="13" value="setAmount" style="text;html=1;align=center;verticalAlign=middle;resizable=0;points=[];autosize=1;strokeColor=none;fillColor=none;fontColor=#007FFF;" parent="1" vertex="1">
                    <mxGeometry x="120" y="285" width="70" height="20" as="geometry"/>
                </mxCell>
                <mxCell id="14" value="" style="endArrow=classic;html=1;fontColor=#4D9900;strokeColor=#FF0000;exitX=1;exitY=0.5;exitDx=0;exitDy=0;entryX=0;entryY=0.75;entryDx=0;entryDy=0;" parent="1" source="15" target="2" edge="1">
                    <mxGeometry width="50" height="50" relative="1" as="geometry">
                        <mxPoint x="390" y="430" as="sourcePoint"/>
                        <mxPoint x="440" y="380" as="targetPoint"/>
                        <Array as="points">
                            <mxPoint x="220" y="420"/>
                            <mxPoint x="220" y="285"/>
                        </Array>
                    </mxGeometry>
                </mxCell>
                <mxCell id="15" value="&lt;font color=&quot;#ff0000&quot;&gt;onChange&lt;/font&gt;" style="shape=step;perimeter=stepPerimeter;whiteSpace=wrap;html=1;fixedSize=1;fontColor=#4D9900;strokeColor=#FF0000;" parent="1" vertex="1">
                    <mxGeometry x="90" y="405" width="110" height="30" as="geometry"/>
                </mxCell>
                <mxCell id="16" value="setAmount(event.target.value)" style="text;html=1;align=center;verticalAlign=middle;resizable=0;points=[];autosize=1;strokeColor=none;fillColor=none;fontColor=#FF0000;" parent="1" vertex="1">
                    <mxGeometry x="140" y="320" width="180" height="20" as="geometry"/>
                </mxCell>
                <mxCell id="19" value="" style="endArrow=classic;html=1;fontColor=#4D9900;strokeColor=#4D9900;entryX=0.25;entryY=0;entryDx=0;entryDy=0;exitX=0.25;exitY=1;exitDx=0;exitDy=0;" parent="1" source="2" target="5" edge="1">
                    <mxGeometry width="50" height="50" relative="1" as="geometry">
                        <mxPoint x="390" y="430" as="sourcePoint"/>
                        <mxPoint x="440" y="380" as="targetPoint"/>
                    </mxGeometry>
                </mxCell>
                <mxCell id="20" value="list" style="text;html=1;align=center;verticalAlign=middle;resizable=0;points=[];autosize=1;strokeColor=none;fillColor=none;fontColor=#4D9900;" parent="1" vertex="1">
                    <mxGeometry x="354" y="350" width="30" height="20" as="geometry"/>
                </mxCell>
                <mxCell id="21" value="" style="endArrow=classic;html=1;fontColor=#4D9900;strokeColor=#007FFF;exitX=0.75;exitY=1;exitDx=0;exitDy=0;entryX=0.75;entryY=0;entryDx=0;entryDy=0;" parent="1" source="2" target="5" edge="1">
                    <mxGeometry width="50" height="50" relative="1" as="geometry">
                        <mxPoint x="390" y="430" as="sourcePoint"/>
                        <mxPoint x="440" y="380" as="targetPoint"/>
                    </mxGeometry>
                </mxCell>
                <mxCell id="66" style="edgeStyle=none;html=1;entryX=-0.047;entryY=0.453;entryDx=0;entryDy=0;entryPerimeter=0;fontSize=12;fontColor=#9933FF;startArrow=classic;startFill=1;endArrow=none;endFill=0;strokeColor=#FF0000;" parent="1" source="58" target="55" edge="1">
                    <mxGeometry relative="1" as="geometry"/>
                </mxCell>
                <mxCell id="22" value="changeCurrency" style="text;html=1;align=center;verticalAlign=middle;resizable=0;points=[];autosize=1;strokeColor=none;fillColor=none;fontColor=#007FFF;" parent="1" vertex="1">
                    <mxGeometry x="450" y="350" width="100" height="20" as="geometry"/>
                </mxCell>
                <mxCell id="23" value="" style="endArrow=classic;html=1;fontColor=#4D9900;strokeColor=#4D9900;entryX=0.25;entryY=0;entryDx=0;entryDy=0;exitX=1;exitY=0.5;exitDx=0;exitDy=0;" parent="1" source="2" target="3" edge="1">
                    <mxGeometry width="50" height="50" relative="1" as="geometry">
                        <mxPoint x="390" y="430" as="sourcePoint"/>
                        <mxPoint x="440" y="380" as="targetPoint"/>
                        <Array as="points">
                            <mxPoint x="690" y="270"/>
                        </Array>
                    </mxGeometry>
                </mxCell>
                <mxCell id="24" value="currency" style="text;html=1;align=center;verticalAlign=middle;resizable=0;points=[];autosize=1;strokeColor=none;fillColor=none;fontColor=#4D9900;" parent="1" vertex="1">
                    <mxGeometry x="630" y="320" width="60" height="20" as="geometry"/>
                </mxCell>
                <mxCell id="25" value="" style="endArrow=classic;html=1;fontColor=#4D9900;strokeColor=#4D9900;entryX=0.75;entryY=0;entryDx=0;entryDy=0;exitX=1;exitY=0.25;exitDx=0;exitDy=0;" parent="1" source="2" target="3" edge="1">
                    <mxGeometry width="50" height="50" relative="1" as="geometry">
                        <mxPoint x="390" y="430" as="sourcePoint"/>
                        <mxPoint x="440" y="380" as="targetPoint"/>
                        <Array as="points">
                            <mxPoint x="750" y="255"/>
                        </Array>
                    </mxGeometry>
                </mxCell>
                <mxCell id="26" value="amount" style="text;html=1;align=center;verticalAlign=middle;resizable=0;points=[];autosize=1;strokeColor=none;fillColor=none;fontColor=#4D9900;" parent="1" vertex="1">
                    <mxGeometry x="748" y="320" width="60" height="20" as="geometry"/>
                </mxCell>
                <UserObject label="CurrenciesItem" treeRoot="1" id="28">
                    <mxCell style="whiteSpace=wrap;html=1;align=center;treeFolding=1;treeMoving=1;newEdgeStyle={&quot;edgeStyle&quot;:&quot;elbowEdgeStyle&quot;,&quot;startArrow&quot;:&quot;none&quot;,&quot;endArrow&quot;:&quot;none&quot;};fontColor=#000000;strokeColor=#000000;" parent="1" vertex="1">
                        <mxGeometry x="354" y="560" width="120" height="60" as="geometry"/>
                    </mxCell>
                </UserObject>
                <UserObject label="CurrenciesItem" treeRoot="1" id="29">
                    <mxCell style="whiteSpace=wrap;html=1;align=center;treeFolding=1;treeMoving=1;newEdgeStyle={&quot;edgeStyle&quot;:&quot;elbowEdgeStyle&quot;,&quot;startArrow&quot;:&quot;none&quot;,&quot;endArrow&quot;:&quot;none&quot;};fontColor=#000000;strokeColor=#000000;" parent="1" vertex="1">
                        <mxGeometry x="550" y="560" width="120" height="60" as="geometry"/>
                    </mxCell>
                </UserObject>
                <UserObject label="CurrenciesItem" treeRoot="1" id="30">
                    <mxCell style="whiteSpace=wrap;html=1;align=center;treeFolding=1;treeMoving=1;newEdgeStyle={&quot;edgeStyle&quot;:&quot;elbowEdgeStyle&quot;,&quot;startArrow&quot;:&quot;none&quot;,&quot;endArrow&quot;:&quot;none&quot;};fontColor=#000000;strokeColor=#000000;" parent="1" vertex="1">
                        <mxGeometry x="159" y="560" width="120" height="60" as="geometry"/>
                    </mxCell>
                </UserObject>
                <mxCell id="31" value="" style="endArrow=classic;html=1;fontColor=#000000;strokeColor=#4D9900;entryX=0.25;entryY=0;entryDx=0;entryDy=0;exitX=0;exitY=0.25;exitDx=0;exitDy=0;" parent="1" source="5" target="30" edge="1">
                    <mxGeometry width="50" height="50" relative="1" as="geometry">
                        <mxPoint x="390" y="530" as="sourcePoint"/>
                        <mxPoint x="440" y="480" as="targetPoint"/>
                        <Array as="points">
                            <mxPoint x="189" y="455"/>
                        </Array>
                    </mxGeometry>
                </mxCell>
                <mxCell id="32" value="name" style="text;html=1;align=center;verticalAlign=middle;resizable=0;points=[];autosize=1;strokeColor=none;fillColor=none;fontColor=#4D9900;" parent="1" vertex="1">
                    <mxGeometry x="143" y="520" width="50" height="20" as="geometry"/>
                </mxCell>
                <mxCell id="33" value="" style="endArrow=classic;html=1;fontColor=#4D9900;strokeColor=#4D9900;exitX=0.25;exitY=1;exitDx=0;exitDy=0;entryX=0.25;entryY=0;entryDx=0;entryDy=0;" parent="1" source="5" target="28" edge="1">
                    <mxGeometry width="50" height="50" relative="1" as="geometry">
                        <mxPoint x="390" y="530" as="sourcePoint"/>
                        <mxPoint x="440" y="480" as="targetPoint"/>
                    </mxGeometry>
                </mxCell>
                <mxCell id="34" value="" style="endArrow=classic;html=1;fontColor=#4D9900;strokeColor=#4D9900;entryX=0.25;entryY=0;entryDx=0;entryDy=0;exitX=1;exitY=0.75;exitDx=0;exitDy=0;" parent="1" source="5" target="29" edge="1">
                    <mxGeometry width="50" height="50" relative="1" as="geometry">
                        <mxPoint x="390" y="530" as="sourcePoint"/>
                        <mxPoint x="440" y="480" as="targetPoint"/>
                        <Array as="points">
                            <mxPoint x="580" y="485"/>
                        </Array>
                    </mxGeometry>
                </mxCell>
                <mxCell id="35" value="name" style="text;html=1;align=center;verticalAlign=middle;resizable=0;points=[];autosize=1;strokeColor=none;fillColor=none;fontColor=#4D9900;" parent="1" vertex="1">
                    <mxGeometry x="339" y="520" width="50" height="20" as="geometry"/>
                </mxCell>
                <mxCell id="36" value="name" style="text;html=1;align=center;verticalAlign=middle;resizable=0;points=[];autosize=1;strokeColor=none;fillColor=none;fontColor=#4D9900;" parent="1" vertex="1">
                    <mxGeometry x="535" y="520" width="50" height="20" as="geometry"/>
                </mxCell>
                <mxCell id="37" value="" style="endArrow=classic;html=1;fontColor=#007FFF;strokeColor=#007FFF;entryX=0.75;entryY=0;entryDx=0;entryDy=0;exitX=0;exitY=0.75;exitDx=0;exitDy=0;" parent="1" source="5" target="30" edge="1">
                    <mxGeometry width="50" height="50" relative="1" as="geometry">
                        <mxPoint x="390" y="530" as="sourcePoint"/>
                        <mxPoint x="440" y="480" as="targetPoint"/>
                        <Array as="points">
                            <mxPoint x="249" y="485"/>
                        </Array>
                    </mxGeometry>
                </mxCell>
                <mxCell id="38" value="" style="endArrow=classic;html=1;fontColor=#007FFF;strokeColor=#4D9900;entryX=0.75;entryY=0;entryDx=0;entryDy=0;exitX=0.75;exitY=1;exitDx=0;exitDy=0;" parent="1" source="5" target="28" edge="1">
                    <mxGeometry width="50" height="50" relative="1" as="geometry">
                        <mxPoint x="390" y="530" as="sourcePoint"/>
                        <mxPoint x="440" y="480" as="targetPoint"/>
                    </mxGeometry>
                </mxCell>
                <mxCell id="40" value="" style="endArrow=classic;html=1;fontColor=#007FFF;strokeColor=#007FFF;entryX=0.75;entryY=0;entryDx=0;entryDy=0;exitX=1;exitY=0.25;exitDx=0;exitDy=0;" parent="1" target="29" edge="1">
                    <mxGeometry width="50" height="50" relative="1" as="geometry">
                        <mxPoint x="474" y="455" as="sourcePoint"/>
                        <mxPoint x="750" y="560" as="targetPoint"/>
                        <Array as="points">
                            <mxPoint x="640" y="455"/>
                        </Array>
                    </mxGeometry>
                </mxCell>
                <mxCell id="41" value="" style="endArrow=classic;html=1;fontColor=#007FFF;strokeColor=#007FFF;entryX=0.75;entryY=0;entryDx=0;entryDy=0;exitX=0.75;exitY=1;exitDx=0;exitDy=0;" parent="1" edge="1">
                    <mxGeometry width="50" height="50" relative="1" as="geometry">
                        <mxPoint x="444" y="500" as="sourcePoint"/>
                        <mxPoint x="444" y="560" as="targetPoint"/>
                    </mxGeometry>
                </mxCell>
                <mxCell id="45" value="&lt;font&gt;onClick&lt;/font&gt;" style="shape=step;perimeter=stepPerimeter;whiteSpace=wrap;html=1;fixedSize=1;fontColor=#FF3399;strokeColor=#FF3399;" parent="1" vertex="1">
                    <mxGeometry x="580" y="605" width="110" height="30" as="geometry"/>
                </mxCell>
                <mxCell id="46" value="" style="endArrow=classic;html=1;fontColor=#007FFF;strokeColor=#FF3399;exitX=1;exitY=0.5;exitDx=0;exitDy=0;entryX=1;entryY=0.75;entryDx=0;entryDy=0;" parent="1" source="45" target="2" edge="1">
                    <mxGeometry width="50" height="50" relative="1" as="geometry">
                        <mxPoint x="390" y="530" as="sourcePoint"/>
                        <mxPoint x="440" y="480" as="targetPoint"/>
                        <Array as="points">
                            <mxPoint x="740" y="620"/>
                            <mxPoint x="740" y="440"/>
                            <mxPoint x="560" y="440"/>
                            <mxPoint x="560" y="285"/>
                        </Array>
                    </mxGeometry>
                </mxCell>
                <mxCell id="47" value="changeCurrency(newCurrency)" style="text;html=1;align=center;verticalAlign=middle;resizable=0;points=[];autosize=1;strokeColor=none;fillColor=none;fontColor=#FF3399;" parent="1" vertex="1">
                    <mxGeometry x="749.5" y="480" width="180" height="20" as="geometry"/>
                </mxCell>
                <mxCell id="48" value="1. appel du modifier setAmount" style="text;html=1;align=left;verticalAlign=middle;resizable=0;points=[];autosize=1;strokeColor=none;fillColor=none;fontColor=#FF0000;fontStyle=1;fontSize=14;" parent="1" vertex="1">
                    <mxGeometry x="-62" y="58" width="220" height="20" as="geometry"/>
                </mxCell>
                <mxCell id="49" value="&lt;font color=&quot;#4d9900&quot;&gt;props&lt;/font&gt;" style="text;html=1;align=center;verticalAlign=middle;resizable=0;points=[];autosize=1;strokeColor=none;fillColor=none;fontColor=#FF0000;" parent="1" vertex="1">
                    <mxGeometry x="660" y="10" width="50" height="20" as="geometry"/>
                </mxCell>
                <mxCell id="50" value="modifier (props)" style="text;html=1;align=center;verticalAlign=middle;resizable=0;points=[];autosize=1;strokeColor=none;fillColor=none;fontColor=#007FFF;" parent="1" vertex="1">
                    <mxGeometry x="700" y="10" width="100" height="20" as="geometry"/>
                </mxCell>
                <mxCell id="51" value="" style="ellipse;whiteSpace=wrap;html=1;fontColor=#007FFF;strokeColor=#000000;" parent="1" vertex="1">
                    <mxGeometry x="227" y="100" width="254" height="146" as="geometry"/>
                </mxCell>
                <mxCell id="52" value="&lt;b&gt;&lt;font style=&quot;font-size: 14px&quot;&gt;State&lt;/font&gt;&lt;/b&gt;" style="text;html=1;align=center;verticalAlign=middle;resizable=0;points=[];autosize=1;strokeColor=none;fillColor=none;fontColor=#000000;" parent="1" vertex="1">
                    <mxGeometry x="329" y="110" width="50" height="20" as="geometry"/>
                </mxCell>
                <mxCell id="53" value="&lt;font style=&quot;font-size: 12px&quot;&gt;baseAmount&lt;/font&gt;" style="text;html=1;align=left;verticalAlign=middle;resizable=0;points=[];autosize=1;strokeColor=none;fillColor=none;fontSize=14;fontColor=#000000;" parent="1" vertex="1">
                    <mxGeometry x="270" y="140" width="80" height="20" as="geometry"/>
                </mxCell>
                <mxCell id="54" value="&lt;font style=&quot;font-size: 12px&quot;&gt;currency&lt;/font&gt;" style="text;html=1;align=left;verticalAlign=middle;resizable=0;points=[];autosize=1;strokeColor=none;fillColor=none;fontSize=14;fontColor=#000000;" parent="1" vertex="1">
                    <mxGeometry x="270" y="180" width="60" height="20" as="geometry"/>
                </mxCell>
                <mxCell id="55" value="&lt;b&gt;&lt;font color=&quot;#ff0000&quot;&gt;15&lt;/font&gt;&lt;/b&gt;" style="text;html=1;align=center;verticalAlign=middle;resizable=0;points=[];autosize=1;strokeColor=none;fillColor=none;fontSize=12;fontColor=#000000;" parent="1" vertex="1">
                    <mxGeometry x="392" y="140" width="30" height="20" as="geometry"/>
                </mxCell>
                <mxCell id="56" value="&lt;b&gt;&lt;font&gt;JPY&lt;/font&gt;&lt;/b&gt;" style="text;html=1;align=center;verticalAlign=middle;resizable=0;points=[];autosize=1;strokeColor=none;fillColor=none;fontSize=12;fontColor=#FF3399;" parent="1" vertex="1">
                    <mxGeometry x="420" y="180" width="40" height="20" as="geometry"/>
                </mxCell>
                <mxCell id="69" style="edgeStyle=none;html=1;fontSize=12;fontColor=#9933FF;startArrow=classic;startFill=1;endArrow=none;endFill=0;strokeColor=#FF0000;" parent="1" source="55" target="58" edge="1">
                    <mxGeometry relative="1" as="geometry"/>
                </mxCell>
                <mxCell id="58" value="&lt;b&gt;&lt;font&gt;1&lt;/font&gt;&lt;/b&gt;" style="text;html=1;align=center;verticalAlign=middle;resizable=0;points=[];autosize=1;strokeColor=none;fillColor=none;fontSize=12;fontColor=#9933FF;" parent="1" vertex="1">
                    <mxGeometry x="354" y="140" width="20" height="20" as="geometry"/>
                </mxCell>
                <mxCell id="70" style="edgeStyle=none;html=1;fontSize=12;fontColor=#FF3399;startArrow=classic;startFill=1;endArrow=none;endFill=0;strokeColor=#FF3399;" parent="1" source="56" target="59" edge="1">
                    <mxGeometry relative="1" as="geometry"/>
                </mxCell>
                <mxCell id="59" value="&lt;b&gt;&lt;font&gt;USD&lt;/font&gt;&lt;/b&gt;" style="text;html=1;align=center;verticalAlign=middle;resizable=0;points=[];autosize=1;strokeColor=none;fillColor=none;fontSize=12;fontColor=#9933FF;" parent="1" vertex="1">
                    <mxGeometry x="344" y="180" width="40" height="20" as="geometry"/>
                </mxCell>
                <mxCell id="61" value="" style="ellipse;shape=cloud;whiteSpace=wrap;html=1;fontSize=12;fontColor=#9933FF;strokeColor=#000000;fillColor=#FFFFFF;" parent="1" vertex="1">
                    <mxGeometry x="748" y="310" width="183" height="140" as="geometry"/>
                </mxCell>
                <mxCell id="62" value="&lt;font style=&quot;font-size: 16px&quot;&gt;&lt;b&gt;1.09&lt;/b&gt;&lt;/font&gt;" style="text;html=1;align=center;verticalAlign=middle;resizable=0;points=[];autosize=1;strokeColor=none;fillColor=#FFFFFF;fontSize=12;fontColor=#9933FF;" parent="1" vertex="1">
                    <mxGeometry x="771" y="350" width="50" height="20" as="geometry"/>
                </mxCell>
                <mxCell id="63" value="&lt;span style=&quot;font-family: &amp;quot;league spartan&amp;quot; , sans-serif ; font-weight: 700 ; background-color: rgb(255 , 255 , 255)&quot;&gt;&lt;font style=&quot;font-size: 16px&quot;&gt;1 806.38&lt;/font&gt;&lt;/span&gt;" style="text;html=1;align=center;verticalAlign=middle;resizable=0;points=[];autosize=1;strokeColor=none;fillColor=#FFFFFF;fontSize=12;fontColor=#FF3399;" parent="1" vertex="1">
                    <mxGeometry x="838" y="400" width="80" height="20" as="geometry"/>
                </mxCell>
                <mxCell id="64" value="&lt;font color=&quot;#9933ff&quot; style=&quot;font-size: 14px&quot;&gt;0. état initial&lt;/font&gt;" style="text;html=1;align=left;verticalAlign=middle;resizable=0;points=[];autosize=1;strokeColor=none;fillColor=none;fontSize=14;fontColor=#FF0000;fontStyle=1" parent="1" vertex="1">
                    <mxGeometry x="-62" y="40" width="100" height="20" as="geometry"/>
                </mxCell>
                <mxCell id="71" value="" style="ellipse;shape=cloud;whiteSpace=wrap;html=1;fontSize=12;fontColor=#9933FF;strokeColor=#000000;" parent="1" vertex="1">
                    <mxGeometry x="143" y="332.5" width="70" height="55" as="geometry"/>
                </mxCell>
                <mxCell id="72" value="&lt;span style=&quot;font-size: 16px;&quot;&gt;&lt;font style=&quot;font-size: 16px;&quot;&gt;1&lt;/font&gt;&lt;/span&gt;" style="text;html=1;align=center;verticalAlign=middle;resizable=0;points=[];autosize=1;strokeColor=none;fillColor=none;fontSize=16;fontColor=#9933FF;fontStyle=1" parent="1" vertex="1">
                    <mxGeometry x="158" y="340" width="20" height="20" as="geometry"/>
                </mxCell>
                <mxCell id="73" value="" style="ellipse;shape=cloud;whiteSpace=wrap;html=1;fontSize=12;fontColor=#9933FF;strokeColor=#000000;" parent="1" vertex="1">
                    <mxGeometry x="246" y="545" width="66" height="45" as="geometry"/>
                </mxCell>
                <mxCell id="74" value="&lt;font color=&quot;#9933ff&quot; size=&quot;1&quot;&gt;&lt;b style=&quot;font-size: 16px&quot;&gt;USD&lt;/b&gt;&lt;/font&gt;" style="text;html=1;align=center;verticalAlign=middle;resizable=0;points=[];autosize=1;strokeColor=none;fillColor=none;fontSize=12;fontColor=#000000;" parent="1" vertex="1">
                    <mxGeometry x="254" y="557.5" width="50" height="20" as="geometry"/>
                </mxCell>
                <mxCell id="79" value="" style="ellipse;shape=cloud;whiteSpace=wrap;html=1;fontSize=12;fontColor=#9933FF;strokeColor=#000000;" parent="1" vertex="1">
                    <mxGeometry x="445" y="550" width="50" height="35" as="geometry"/>
                </mxCell>
                <mxCell id="80" value="&lt;font&gt;GBP&lt;/font&gt;" style="text;html=1;align=center;verticalAlign=middle;resizable=0;points=[];autosize=1;strokeColor=none;fillColor=none;fontSize=12;fontColor=#000000;" parent="1" vertex="1">
                    <mxGeometry x="450" y="557.5" width="40" height="20" as="geometry"/>
                </mxCell>
                <mxCell id="83" value="&lt;font style=&quot;font-size: 16px&quot;&gt;&lt;b&gt;16.41&lt;/b&gt;&lt;/font&gt;" style="text;html=1;align=center;verticalAlign=middle;resizable=0;points=[];autosize=1;strokeColor=none;fillColor=#FFFFFF;fontSize=12;fontColor=#FF0000;" parent="1" vertex="1">
                    <mxGeometry x="809.5" y="370" width="60" height="20" as="geometry"/>
                </mxCell>
                <mxCell id="84" value="&lt;span style=&quot;font-size: 16px&quot;&gt;&lt;font style=&quot;font-size: 16px&quot; color=&quot;#ff0000&quot;&gt;15&lt;/font&gt;&lt;/span&gt;" style="text;html=1;align=center;verticalAlign=middle;resizable=0;points=[];autosize=1;strokeColor=none;fillColor=none;fontSize=16;fontColor=#9933FF;fontStyle=1" parent="1" vertex="1">
                    <mxGeometry x="173" y="360" width="30" height="20" as="geometry"/>
                </mxCell>
                <mxCell id="85" value="" style="ellipse;shape=cloud;whiteSpace=wrap;html=1;fontSize=12;fontColor=#9933FF;strokeColor=#000000;" parent="1" vertex="1">
                    <mxGeometry x="636" y="545" width="66" height="45" as="geometry"/>
                </mxCell>
                <mxCell id="86" value="&lt;font size=&quot;1&quot; color=&quot;#ff3399&quot;&gt;&lt;b style=&quot;font-size: 16px&quot;&gt;JPY&lt;/b&gt;&lt;/font&gt;" style="text;html=1;align=center;verticalAlign=middle;resizable=0;points=[];autosize=1;strokeColor=none;fillColor=none;fontSize=12;fontColor=#000000;" parent="1" vertex="1">
                    <mxGeometry x="644" y="560" width="50" height="20" as="geometry"/>
                </mxCell>
                <mxCell id="87" value="2. appel du modifier changeCurrency" style="text;html=1;align=left;verticalAlign=middle;resizable=0;points=[];autosize=1;strokeColor=none;fillColor=none;fontColor=#FF3399;fontStyle=1;fontSize=14;" parent="1" vertex="1">
                    <mxGeometry x="-62" y="75" width="260" height="20" as="geometry"/>
                </mxCell>
                <mxCell id="88" value="changeCurrency" style="text;html=1;align=center;verticalAlign=middle;resizable=0;points=[];autosize=1;strokeColor=none;fillColor=none;fontColor=#007FFF;" vertex="1" parent="1">
                    <mxGeometry x="246" y="520" width="100" height="20" as="geometry"/>
                </mxCell>
                <mxCell id="89" value="changeCurrency" style="text;html=1;align=center;verticalAlign=middle;resizable=0;points=[];autosize=1;strokeColor=none;fillColor=none;fontColor=#007FFF;" vertex="1" parent="1">
                    <mxGeometry x="445" y="520" width="100" height="20" as="geometry"/>
                </mxCell>
                <mxCell id="90" value="changeCurrency" style="text;html=1;align=center;verticalAlign=middle;resizable=0;points=[];autosize=1;strokeColor=none;fillColor=none;fontColor=#007FFF;" vertex="1" parent="1">
                    <mxGeometry x="637" y="520" width="100" height="20" as="geometry"/>
                </mxCell>
            </root>
        </mxGraphModel>
    </diagram>
</mxfile>
